<?xml version="1.0" encoding="UTF-8" standalone="no"?>
<!DOCTYPE svg PUBLIC "-//W3C//DTD SVG 1.1//EN"
 "http://www.w3.org/Graphics/SVG/1.1/DTD/svg11.dtd">
<!-- Generated by graphviz version 2.30.1 (20201013.1554)
 -->
<!-- Title: snakemake_dag Pages: 1 -->
<svg width="371pt" height="332pt"
 viewBox="0.00 0.00 371.00 332.00" xmlns="http://www.w3.org/2000/svg" xmlns:xlink="http://www.w3.org/1999/xlink">
<g id="graph0" class="graph" transform="scale(1 1) rotate(0) translate(4 328)">
<title>snakemake_dag</title>
<polygon fill="white" stroke="white" points="-4,5 -4,-328 368,-328 368,5 -4,5"/>
<!-- 0 -->
<g id="node1" class="node"><title>0</title>
<path fill="none" stroke="#d8bc56" stroke-width="2" d="M196,-36C196,-36 166,-36 166,-36 160,-36 154,-30 154,-24 154,-24 154,-12 154,-12 154,-6 160,-0 166,-0 166,-0 196,-0 196,-0 202,-0 208,-6 208,-12 208,-12 208,-24 208,-24 208,-30 202,-36 196,-36"/>
<text text-anchor="middle" x="181" y="-15.5" font-family="sans" font-size="10.00">all</text>
</g>
<!-- 1 -->
<g id="node2" class="node"><title>1</title>
<path fill="none" stroke="#56c1d8" stroke-width="2" d="M160.25,-108C160.25,-108 11.75,-108 11.75,-108 5.75,-108 -0.25,-102 -0.25,-96 -0.25,-96 -0.25,-84 -0.25,-84 -0.25,-78 5.75,-72 11.75,-72 11.75,-72 160.25,-72 160.25,-72 166.25,-72 172.25,-78 172.25,-84 172.25,-84 172.25,-96 172.25,-96 172.25,-102 166.25,-108 160.25,-108"/>
<text text-anchor="middle" x="86" y="-93" font-family="sans" font-size="10.00">filter_on_ambiguous_annotation</text>
<text text-anchor="middle" x="86" y="-82" font-family="sans" font-size="10.00">strandedness: unstranded</text>
</g>
<!-- 1&#45;&gt;0 -->
<g id="edge1" class="edge"><title>1&#45;&gt;0</title>
<path fill="none" stroke="grey" stroke-width="2" d="M109.483,-71.6966C121.563,-62.796 136.454,-51.8232 149.516,-42.1989"/>
<polygon fill="grey" stroke="grey" points="151.813,-44.8541 157.787,-36.1043 147.66,-39.2187 151.813,-44.8541"/>
</g>
<!-- 2 -->
<g id="node3" class="node"><title>2</title>
<path fill="none" stroke="#56d88a" stroke-width="2" d="M241,-180C241,-180 121,-180 121,-180 115,-180 109,-174 109,-168 109,-168 109,-156 109,-156 109,-150 115,-144 121,-144 121,-144 241,-144 241,-144 247,-144 253,-150 253,-156 253,-156 253,-168 253,-168 253,-174 247,-180 241,-180"/>
<text text-anchor="middle" x="181" y="-159.5" font-family="sans" font-size="10.00">select_terminal_exon_pas</text>
</g>
<!-- 2&#45;&gt;1 -->
<g id="edge3" class="edge"><title>2&#45;&gt;1</title>
<path fill="none" stroke="grey" stroke-width="2" d="M157.517,-143.697C145.437,-134.796 130.546,-123.823 117.484,-114.199"/>
<polygon fill="grey" stroke="grey" points="119.34,-111.219 109.213,-108.104 115.187,-116.854 119.34,-111.219"/>
</g>
<!-- 5 -->
<g id="node6" class="node"><title>5</title>
<path fill="none" stroke="#56c1d8" stroke-width="2" d="M351.25,-108C351.25,-108 202.75,-108 202.75,-108 196.75,-108 190.75,-102 190.75,-96 190.75,-96 190.75,-84 190.75,-84 190.75,-78 196.75,-72 202.75,-72 202.75,-72 351.25,-72 351.25,-72 357.25,-72 363.25,-78 363.25,-84 363.25,-84 363.25,-96 363.25,-96 363.25,-102 357.25,-108 351.25,-108"/>
<text text-anchor="middle" x="277" y="-93" font-family="sans" font-size="10.00">filter_on_ambiguous_annotation</text>
<text text-anchor="middle" x="277" y="-82" font-family="sans" font-size="10.00">strandedness: stranded</text>
</g>
<!-- 2&#45;&gt;5 -->
<g id="edge6" class="edge"><title>2&#45;&gt;5</title>
<path fill="none" stroke="grey" stroke-width="2" d="M204.73,-143.697C216.937,-134.796 231.985,-123.823 245.184,-114.199"/>
<polygon fill="grey" stroke="grey" points="247.525,-116.824 253.543,-108.104 243.4,-111.168 247.525,-116.824"/>
</g>
<!-- 3 -->
<g id="node4" class="node"><title>3</title>
<path fill="none" stroke="#d85656" stroke-width="2" d="M224.25,-252C224.25,-252 137.75,-252 137.75,-252 131.75,-252 125.75,-246 125.75,-240 125.75,-240 125.75,-228 125.75,-228 125.75,-222 131.75,-216 137.75,-216 137.75,-216 224.25,-216 224.25,-216 230.25,-216 236.25,-222 236.25,-228 236.25,-228 236.25,-240 236.25,-240 236.25,-246 230.25,-252 224.25,-252"/>
<text text-anchor="middle" x="181" y="-231.5" font-family="sans" font-size="10.00">select_tandem_pas</text>
</g>
<!-- 3&#45;&gt;2 -->
<g id="edge4" class="edge"><title>3&#45;&gt;2</title>
<path fill="none" stroke="grey" stroke-width="2" d="M181,-215.697C181,-207.983 181,-198.712 181,-190.112"/>
<polygon fill="grey" stroke="grey" points="184.5,-190.104 181,-180.104 177.5,-190.104 184.5,-190.104"/>
</g>
<!-- 4 -->
<g id="node5" class="node"><title>4</title>
<path fill="none" stroke="#88d856" stroke-width="2" d="M212,-324C212,-324 150,-324 150,-324 144,-324 138,-318 138,-312 138,-312 138,-300 138,-300 138,-294 144,-288 150,-288 150,-288 212,-288 212,-288 218,-288 224,-294 224,-300 224,-300 224,-312 224,-312 224,-318 218,-324 212,-324"/>
<text text-anchor="middle" x="181" y="-303.5" font-family="sans" font-size="10.00">create_log_dir</text>
</g>
<!-- 4&#45;&gt;3 -->
<g id="edge5" class="edge"><title>4&#45;&gt;3</title>
<path fill="none" stroke="grey" stroke-width="2" d="M181,-287.697C181,-279.983 181,-270.712 181,-262.112"/>
<polygon fill="grey" stroke="grey" points="184.5,-262.104 181,-252.104 177.5,-262.104 184.5,-262.104"/>
</g>
<!-- 5&#45;&gt;0 -->
<g id="edge2" class="edge"><title>5&#45;&gt;0</title>
<path fill="none" stroke="grey" stroke-width="2" d="M253.27,-71.6966C241.063,-62.796 226.015,-51.8232 212.816,-42.1989"/>
<polygon fill="grey" stroke="grey" points="214.6,-39.1681 204.457,-36.1043 210.475,-44.8241 214.6,-39.1681"/>
</g>
</g>
</svg>
